<svg width="18" height="18" viewBox="0 0 18 18" fill="none" xmlns="http://www.w3.org/2000/svg">
<path fill-rule="evenodd" clip-rule="evenodd" d="M8.9535 0.9375H9.0465C10.5983 0.9375 11.826 0.9375 12.7867 1.08075C13.779 1.22925 14.5665 1.54125 15.1793 2.22225C15.7845 2.89425 16.0553 3.74475 16.1842 4.81725C16.3125 5.8725 16.3125 7.22625 16.3125 8.961V9.039C16.3125 10.7738 16.3125 12.1275 16.185 13.1827C16.0553 14.2552 15.7845 15.1058 15.18 15.7778C14.5665 16.4588 13.7797 16.7708 12.7867 16.9193C11.826 17.0625 10.5982 17.0625 9.04725 17.0625H8.95275C7.40175 17.0625 6.174 17.0625 5.21325 16.9193C4.22025 16.7708 3.4335 16.4588 2.82075 15.7778C2.2155 15.1058 1.94475 14.2552 1.81575 13.1827C1.6875 12.1275 1.6875 10.7738 1.6875 9.039V8.961C1.6875 7.22625 1.6875 5.8725 1.815 4.818C1.94475 3.744 2.2155 2.89425 2.82 2.22225C3.4335 1.54125 4.22025 1.22925 5.21325 1.08075C6.174 0.9375 7.40175 0.9375 8.9535 0.9375ZM5.37975 2.19375C4.5345 2.31975 4.032 2.5575 3.65625 2.9745C3.27375 3.4005 3.04875 3.984 2.93175 4.953C2.81325 5.9325 2.8125 7.218 2.8125 9C2.8125 10.782 2.81325 12.0675 2.9325 13.047C3.0495 14.016 3.273 14.5995 3.65625 15.0255C4.032 15.4425 4.5345 15.6803 5.37975 15.8063C6.2475 15.936 7.39125 15.9375 9 15.9375C10.6088 15.9375 11.7525 15.936 12.6202 15.8063C13.4655 15.6803 13.968 15.4425 14.343 15.0255C14.727 14.5995 14.9505 14.016 15.0682 13.047C15.1867 12.0675 15.1875 10.782 15.1875 9C15.1875 7.218 15.1868 5.9325 15.0675 4.953C14.9505 3.984 14.727 3.4005 14.3438 2.9745C13.968 2.5575 13.4655 2.31975 12.6202 2.19375C11.7525 2.064 10.6088 2.0625 9 2.0625C7.39125 2.0625 6.2475 2.064 5.37975 2.19375ZM6.687 3.9375H11.313C11.598 3.9375 11.8455 3.9375 12.0615 3.99525C12.3475 4.07185 12.6084 4.22237 12.8178 4.43169C13.0273 4.64101 13.178 4.90176 13.2548 5.18775C13.3133 5.40525 13.3132 5.65125 13.3125 5.93775V6.063C13.3125 6.348 13.3125 6.5955 13.2548 6.8115C13.1781 7.09754 13.0276 7.35838 12.8183 7.56783C12.609 7.77728 12.3482 7.92797 12.0623 8.00475C11.8448 8.06325 11.5988 8.06325 11.3123 8.0625H6.68775C6.40275 8.0625 6.15525 8.0625 5.93925 8.00475C5.65321 7.92815 5.39237 7.77763 5.18292 7.56831C4.97347 7.35899 4.82278 7.09824 4.746 6.81225C4.6875 6.59475 4.68825 6.34875 4.68825 6.06225C4.6883 6.0205 4.6883 5.97875 4.68825 5.937C4.68825 5.652 4.68825 5.4045 4.746 5.1885C4.8226 4.90246 4.97312 4.64162 5.18244 4.43217C5.39176 4.22272 5.65251 4.07203 5.9385 3.99525C6.156 3.93675 6.402 3.9375 6.6885 3.9375M6.75 5.0625C6.36525 5.0625 6.28275 5.067 6.2295 5.082C6.1342 5.10757 6.0473 5.15776 5.97753 5.22753C5.90776 5.2973 5.85757 5.3842 5.832 5.4795C5.817 5.53275 5.8125 5.6145 5.8125 6C5.8125 6.38475 5.817 6.46725 5.832 6.5205C5.85757 6.6158 5.90776 6.7027 5.97753 6.77247C6.0473 6.84224 6.1342 6.89243 6.2295 6.918C6.28275 6.933 6.3645 6.9375 6.75 6.9375H11.25C11.6348 6.9375 11.7172 6.933 11.7705 6.918C11.8658 6.89243 11.9527 6.84224 12.0225 6.77247C12.0922 6.7027 12.1424 6.6158 12.168 6.5205C12.183 6.46725 12.1875 6.3855 12.1875 6C12.1875 5.61525 12.183 5.53275 12.168 5.4795C12.1424 5.3842 12.0922 5.2973 12.0225 5.22753C11.9527 5.15776 11.8658 5.10757 11.7705 5.082C11.7172 5.067 11.6355 5.0625 11.25 5.0625H6.75Z" fill="white"/>
<path d="M6.75 9.75C6.75 9.94891 6.67098 10.1397 6.53033 10.2803C6.38968 10.421 6.19891 10.5 6 10.5C5.80109 10.5 5.61032 10.421 5.46967 10.2803C5.32902 10.1397 5.25 9.94891 5.25 9.75C5.25 9.55109 5.32902 9.36032 5.46967 9.21967C5.61032 9.07902 5.80109 9 6 9C6.19891 9 6.38968 9.07902 6.53033 9.21967C6.67098 9.36032 6.75 9.55109 6.75 9.75ZM6.75 12.75C6.75 12.9489 6.67098 13.1397 6.53033 13.2803C6.38968 13.421 6.19891 13.5 6 13.5C5.80109 13.5 5.61032 13.421 5.46967 13.2803C5.32902 13.1397 5.25 12.9489 5.25 12.75C5.25 12.5511 5.32902 12.3603 5.46967 12.2197C5.61032 12.079 5.80109 12 6 12C6.19891 12 6.38968 12.079 6.53033 12.2197C6.67098 12.3603 6.75 12.5511 6.75 12.75ZM9.75 9.75C9.75 9.94891 9.67098 10.1397 9.53033 10.2803C9.38968 10.421 9.19891 10.5 9 10.5C8.80109 10.5 8.61032 10.421 8.46967 10.2803C8.32902 10.1397 8.25 9.94891 8.25 9.75C8.25 9.55109 8.32902 9.36032 8.46967 9.21967C8.61032 9.07902 8.80109 9 9 9C9.19891 9 9.38968 9.07902 9.53033 9.21967C9.67098 9.36032 9.75 9.55109 9.75 9.75ZM9.75 12.75C9.75 12.9489 9.67098 13.1397 9.53033 13.2803C9.38968 13.421 9.19891 13.5 9 13.5C8.80109 13.5 8.61032 13.421 8.46967 13.2803C8.32902 13.1397 8.25 12.9489 8.25 12.75C8.25 12.5511 8.32902 12.3603 8.46967 12.2197C8.61032 12.079 8.80109 12 9 12C9.19891 12 9.38968 12.079 9.53033 12.2197C9.67098 12.3603 9.75 12.5511 9.75 12.75ZM12.75 9.75C12.75 9.94891 12.671 10.1397 12.5303 10.2803C12.3897 10.421 12.1989 10.5 12 10.5C11.8011 10.5 11.6103 10.421 11.4697 10.2803C11.329 10.1397 11.25 9.94891 11.25 9.75C11.25 9.55109 11.329 9.36032 11.4697 9.21967C11.6103 9.07902 11.8011 9 12 9C12.1989 9 12.3897 9.07902 12.5303 9.21967C12.671 9.36032 12.75 9.55109 12.75 9.75ZM12.75 12.75C12.75 12.9489 12.671 13.1397 12.5303 13.2803C12.3897 13.421 12.1989 13.5 12 13.5C11.8011 13.5 11.6103 13.421 11.4697 13.2803C11.329 13.1397 11.25 12.9489 11.25 12.75C11.25 12.5511 11.329 12.3603 11.4697 12.2197C11.6103 12.079 11.8011 12 12 12C12.1989 12 12.3897 12.079 12.5303 12.2197C12.671 12.3603 12.75 12.5511 12.75 12.75Z" fill="white"/>
</svg>
