<svg width="8" height="5" viewBox="0 0 8 5" fill="none" xmlns="http://www.w3.org/2000/svg">
<path d="M1.75 0.75C1.75 0.948912 1.67098 1.13968 1.53033 1.28033C1.38968 1.42098 1.19891 1.5 1 1.5C0.801088 1.5 0.610322 1.42098 0.46967 1.28033C0.329018 1.13968 0.25 0.948912 0.25 0.75C0.25 0.551088 0.329018 0.360322 0.46967 0.21967C0.610322 0.0790178 0.801088 0 1 0C1.19891 0 1.38968 0.0790178 1.53033 0.21967C1.67098 0.360322 1.75 0.551088 1.75 0.75ZM1.75 3.75C1.75 3.94891 1.67098 4.13968 1.53033 4.28033C1.38968 4.42098 1.19891 4.5 1 4.5C0.801088 4.5 0.610322 4.42098 0.46967 4.28033C0.329018 4.13968 0.25 3.94891 0.25 3.75C0.25 3.55109 0.329018 3.36032 0.46967 3.21967C0.610322 3.07902 0.801088 3 1 3C1.19891 3 1.38968 3.07902 1.53033 3.21967C1.67098 3.36032 1.75 3.55109 1.75 3.75ZM4.75 0.75C4.75 0.948912 4.67098 1.13968 4.53033 1.28033C4.38968 1.42098 4.19891 1.5 4 1.5C3.80109 1.5 3.61032 1.42098 3.46967 1.28033C3.32902 1.13968 3.25 0.948912 3.25 0.75C3.25 0.551088 3.32902 0.360322 3.46967 0.21967C3.61032 0.0790178 3.80109 0 4 0C4.19891 0 4.38968 0.0790178 4.53033 0.21967C4.67098 0.360322 4.75 0.551088 4.75 0.75ZM4.75 3.75C4.75 3.94891 4.67098 4.13968 4.53033 4.28033C4.38968 4.42098 4.19891 4.5 4 4.5C3.80109 4.5 3.61032 4.42098 3.46967 4.28033C3.32902 4.13968 3.25 3.94891 3.25 3.75C3.25 3.55109 3.32902 3.36032 3.46967 3.21967C3.61032 3.07902 3.80109 3 4 3C4.19891 3 4.38968 3.07902 4.53033 3.21967C4.67098 3.36032 4.75 3.55109 4.75 3.75ZM7.75 0.75C7.75 0.948912 7.67098 1.13968 7.53033 1.28033C7.38968 1.42098 7.19891 1.5 7 1.5C6.80109 1.5 6.61032 1.42098 6.46967 1.28033C6.32902 1.13968 6.25 0.948912 6.25 0.75C6.25 0.551088 6.32902 0.360322 6.46967 0.21967C6.61032 0.0790178 6.80109 0 7 0C7.19891 0 7.38968 0.0790178 7.53033 0.21967C7.67098 0.360322 7.75 0.551088 7.75 0.75ZM7.75 3.75C7.75 3.94891 7.67098 4.13968 7.53033 4.28033C7.38968 4.42098 7.19891 4.5 7 4.5C6.80109 4.5 6.61032 4.42098 6.46967 4.28033C6.32902 4.13968 6.25 3.94891 6.25 3.75C6.25 3.55109 6.32902 3.36032 6.46967 3.21967C6.61032 3.07902 6.80109 3 7 3C7.19891 3 7.38968 3.07902 7.53033 3.21967C7.67098 3.36032 7.75 3.55109 7.75 3.75Z" fill="white"/>
</svg>
