<svg width="16" height="16" viewBox="0 0 16 16" fill="none" xmlns="http://www.w3.org/2000/svg">
<path fill-rule="evenodd" clip-rule="evenodd" d="M2.36 0.199951H2.3C2.0252 0.199951 1.7888 0.199951 1.58 0.249151C1.25676 0.326389 0.961217 0.491607 0.726114 0.726498C0.49101 0.96139 0.325526 1.25678 0.247997 1.57995C0.199997 1.78875 0.199997 2.02395 0.199997 2.29995V5.29995C0.199997 5.57475 0.199997 5.81115 0.249197 6.01995C0.326435 6.34319 0.491653 6.63873 0.726544 6.87383C0.961436 7.10894 1.25683 7.27442 1.58 7.35195C1.7888 7.39995 2.024 7.39995 2.3 7.39995H5.3C5.5748 7.39995 5.8112 7.39995 6.02 7.35075C6.34323 7.27351 6.63878 7.1083 6.87388 6.8734C7.10898 6.63851 7.27447 6.34312 7.352 6.01995C7.4 5.81115 7.4 5.57595 7.4 5.29995V2.29995C7.4 2.02515 7.4 1.78875 7.3508 1.57995C7.27356 1.25671 7.10834 0.961171 6.87345 0.726068C6.63856 0.490964 6.34316 0.32548 6.02 0.247951C5.8112 0.199951 5.576 0.199951 5.3 0.199951H5.24H2.36ZM1.8596 1.41675C1.9112 1.40475 1.9916 1.39995 2.36 1.39995H5.24C5.6096 1.39995 5.6888 1.40355 5.7404 1.41675C5.84819 1.44253 5.94674 1.49766 6.02511 1.57603C6.10349 1.65441 6.15862 1.75296 6.1844 1.86075C6.1964 1.91115 6.2 1.99035 6.2 2.35995V5.23995C6.2 5.60955 6.1964 5.68875 6.1832 5.74035C6.15742 5.84815 6.10229 5.9467 6.02391 6.02507C5.94554 6.10344 5.84699 6.15857 5.7392 6.18435C5.69 6.19515 5.6108 6.19995 5.24 6.19995H2.36C1.9904 6.19995 1.9112 6.19635 1.8596 6.18315C1.7518 6.15737 1.65325 6.10224 1.57488 6.02387C1.49651 5.9455 1.44137 5.84695 1.4156 5.73915C1.4048 5.68995 1.4 5.61075 1.4 5.23995V2.35995C1.4 1.99035 1.4036 1.91115 1.4168 1.85955C1.44257 1.75176 1.49771 1.65321 1.57608 1.57483C1.65445 1.49646 1.753 1.44133 1.8608 1.41555M10.76 0.199951H10.7C10.4252 0.199951 10.1888 0.199951 9.98 0.249151C9.65676 0.326389 9.36122 0.491607 9.12611 0.726498C8.89101 0.96139 8.72553 1.25678 8.648 1.57995C8.6 1.78875 8.6 2.02395 8.6 2.29995V5.29995C8.6 5.57475 8.6 5.81115 8.6492 6.01995C8.72644 6.34319 8.89165 6.63873 9.12654 6.87383C9.36144 7.10894 9.65683 7.27442 9.98 7.35195C10.1888 7.39995 10.424 7.39995 10.7 7.39995H13.7C13.9748 7.39995 14.2112 7.39995 14.42 7.35075C14.7432 7.27351 15.0388 7.1083 15.2739 6.8734C15.509 6.63851 15.6745 6.34312 15.752 6.01995C15.8 5.81115 15.8 5.57595 15.8 5.29995V2.29995C15.8 2.02515 15.8 1.78875 15.7508 1.57995C15.6736 1.25671 15.5083 0.961171 15.2734 0.726068C15.0386 0.490964 14.7432 0.32548 14.42 0.247951C14.2112 0.199951 13.976 0.199951 13.7 0.199951H13.64H10.76ZM10.2596 1.41675C10.3112 1.40475 10.3916 1.39995 10.76 1.39995H13.64C14.0096 1.39995 14.0888 1.40355 14.1404 1.41675C14.2482 1.44253 14.3467 1.49766 14.4251 1.57603C14.5035 1.65441 14.5586 1.75296 14.5844 1.86075C14.5964 1.91115 14.6 1.99035 14.6 2.35995V5.23995C14.6 5.60955 14.5952 5.68875 14.5832 5.74035C14.5574 5.84815 14.5023 5.9467 14.4239 6.02507C14.3455 6.10344 14.247 6.15857 14.1392 6.18435C14.0888 6.19635 14.0096 6.19995 13.64 6.19995H10.76C10.3904 6.19995 10.3112 6.19635 10.2596 6.18315C10.1518 6.15737 10.0533 6.10224 9.97488 6.02387C9.89651 5.9455 9.84137 5.84695 9.8156 5.73915C9.8048 5.68995 9.8 5.61075 9.8 5.23995V2.35995C9.8 1.99035 9.8036 1.91115 9.8168 1.85955C9.84258 1.75176 9.89771 1.65321 9.97608 1.57483C10.0545 1.49646 10.153 1.44133 10.2608 1.41555M2.3 8.59995H5.3C5.5748 8.59995 5.8112 8.59995 6.02 8.64915C6.34323 8.72639 6.63878 8.89161 6.87388 9.1265C7.10898 9.36139 7.27447 9.65678 7.352 9.97995C7.4 10.1888 7.4 10.424 7.4 10.7V13.7C7.4 13.9748 7.4 14.2112 7.3508 14.42C7.27356 14.7432 7.10834 15.0387 6.87345 15.2738C6.63856 15.5089 6.34316 15.6744 6.02 15.752C5.8112 15.8 5.576 15.8 5.3 15.8H2.3C2.0252 15.8 1.7888 15.8 1.58 15.7508C1.25676 15.6735 0.961217 15.5083 0.726114 15.2734C0.49101 15.0385 0.325526 14.7431 0.247997 14.42C0.199997 14.2112 0.199997 13.976 0.199997 13.7V10.7C0.199997 10.4252 0.199997 10.1888 0.249197 9.97995C0.326435 9.65671 0.491653 9.36117 0.726544 9.12607C0.961436 8.89097 1.25683 8.72548 1.58 8.64795C1.7888 8.59995 2.024 8.59995 2.3 8.59995ZM2.36 9.79995C1.9904 9.79995 1.9112 9.80355 1.8596 9.81675C1.7518 9.84253 1.65325 9.89766 1.57488 9.97603C1.49651 10.0544 1.44137 10.153 1.4156 10.2608C1.4048 10.31 1.4 10.3892 1.4 10.76V13.64C1.4 14.0096 1.4036 14.0888 1.4168 14.1404C1.44257 14.2481 1.49771 14.3467 1.57608 14.4251C1.65445 14.5034 1.753 14.5586 1.8608 14.5844C1.9112 14.5964 1.9904 14.6 2.36 14.6H5.24C5.6096 14.6 5.6888 14.5952 5.7404 14.5832C5.84819 14.5574 5.94674 14.5022 6.02511 14.4239C6.10349 14.3455 6.15862 14.2469 6.1844 14.1392C6.1964 14.0888 6.2 14.0096 6.2 13.64V10.76C6.2 10.3904 6.1964 10.3112 6.1832 10.2596C6.15742 10.1518 6.10229 10.0532 6.02391 9.97483C5.94554 9.89646 5.84699 9.84133 5.7392 9.81555C5.69 9.80475 5.6108 9.79995 5.24 9.79995H2.36ZM10.76 8.59995H10.7C10.4252 8.59995 10.1888 8.59995 9.98 8.64915C9.65676 8.72639 9.36122 8.89161 9.12611 9.1265C8.89101 9.36139 8.72553 9.65678 8.648 9.97995C8.6 10.1888 8.6 10.424 8.6 10.7V13.7C8.6 13.9748 8.6 14.2112 8.6492 14.42C8.72644 14.7432 8.89165 15.0387 9.12654 15.2738C9.36144 15.5089 9.65683 15.6744 9.98 15.752C10.1888 15.8012 10.4252 15.8012 10.7 15.8012H13.7C13.9748 15.8012 14.2112 15.8012 14.42 15.752C14.743 15.6745 15.0383 15.5092 15.2732 15.2743C15.5081 15.0395 15.6734 14.7442 15.7508 14.4212C15.8 14.2124 15.8 13.976 15.8 13.7012V10.7C15.8 10.4252 15.8 10.1888 15.7508 9.97995C15.6736 9.65671 15.5083 9.36117 15.2734 9.12607C15.0386 8.89097 14.7432 8.72548 14.42 8.64795C14.2112 8.59995 13.976 8.59995 13.7 8.59995H13.64H10.76ZM10.2596 9.81675C10.3112 9.80475 10.3916 9.79995 10.76 9.79995H13.64C14.0096 9.79995 14.0888 9.80355 14.1404 9.81675C14.2482 9.84253 14.3467 9.89766 14.4251 9.97603C14.5035 10.0544 14.5586 10.153 14.5844 10.2608C14.5964 10.3112 14.6 10.3904 14.6 10.76V13.64C14.6 14.0096 14.5952 14.0888 14.5832 14.1404C14.5574 14.2481 14.5023 14.3467 14.4239 14.4251C14.3455 14.5034 14.247 14.5586 14.1392 14.5844C14.0888 14.5964 14.0096 14.6 13.64 14.6H10.76C10.3904 14.6 10.3112 14.5952 10.2596 14.5832C10.1518 14.5574 10.0533 14.5022 9.97488 14.4239C9.89651 14.3455 9.84137 14.2469 9.8156 14.1392C9.8048 14.09 9.8 14.0108 9.8 13.64V10.76C9.8 10.3904 9.8036 10.3112 9.8168 10.2596C9.84258 10.1518 9.89771 10.0532 9.97608 9.97483C10.0545 9.89646 10.153 9.84133 10.2608 9.81555" fill="white"/>
</svg>
