<svg width="16" height="16" viewBox="0 0 16 16" fill="none" xmlns="http://www.w3.org/2000/svg">
<path d="M0.6875 7.99994L7.40375 1.28369C7.48204 1.20536 7.57499 1.14323 7.67729 1.10083C7.7796 1.05844 7.88926 1.03662 8 1.03662C8.11074 1.03662 8.2204 1.05844 8.32271 1.10083C8.42501 1.14323 8.51796 1.20536 8.59625 1.28369L15.3125 7.99994M2.375 6.31244V13.9062C2.375 14.3719 2.753 14.7499 3.21875 14.7499H6.3125V11.0937C6.3125 10.6279 6.6905 10.2499 7.15625 10.2499H8.84375C9.3095 10.2499 9.6875 10.6279 9.6875 11.0937V14.7499H12.7812C13.247 14.7499 13.625 14.3719 13.625 13.9062V6.31244M5.1875 14.7499H11.375" stroke="white" stroke-width="1.2" stroke-linecap="round" stroke-linejoin="round"/>
</svg>
