<svg width="18" height="18" viewBox="0 0 18 18" fill="none" xmlns="http://www.w3.org/2000/svg">
<path d="M1.5 12.675C1.5 11.6925 1.5 11.202 1.72125 10.8412C1.8449 10.6395 2.01452 10.4699 2.21625 10.3463C2.57625 10.125 3.06825 10.125 4.05 10.125H4.875C6.2895 10.125 6.996 10.125 7.4355 10.5645C7.875 11.004 7.875 11.7105 7.875 13.125V13.95C7.875 14.9325 7.875 15.423 7.65375 15.7838C7.5301 15.9855 7.36048 16.1551 7.15875 16.2787C6.79875 16.5 6.30675 16.5 5.325 16.5C3.852 16.5 3.1155 16.5 2.57475 16.1685C2.27215 15.983 2.01772 15.7286 1.83225 15.426M16.5 5.325C16.5 6.3075 16.5 6.798 16.2787 7.15875C16.1551 7.36048 15.9855 7.5301 15.7838 7.65375C15.4238 7.875 14.9318 7.875 13.95 7.875H13.125C11.7105 7.875 11.004 7.875 10.5645 7.4355C10.125 6.996 10.125 6.2895 10.125 4.875V4.05C10.125 3.0675 10.125 2.577 10.3463 2.21625C10.4699 2.01452 10.6395 1.8449 10.8412 1.72125C11.2012 1.5 11.6932 1.5 12.675 1.5C14.148 1.5 14.8845 1.5 15.426 1.8315C15.7286 2.01697 15.983 2.2714 16.1685 2.574" stroke="white" stroke-width="1.1" stroke-linecap="round"/>
<path d="M12.375 4.6875C12.375 4.30125 12.375 4.10775 12.4725 3.97125C12.5065 3.9231 12.5483 3.88101 12.5963 3.84675C12.7328 3.75 12.9263 3.75 13.3125 3.75C13.6988 3.75 13.8923 3.75 14.0288 3.8475C14.0769 3.88147 14.119 3.92331 14.1533 3.97125C14.25 4.10775 14.25 4.30125 14.25 4.6875C14.25 5.07375 14.25 5.26725 14.1525 5.40375C14.1185 5.4519 14.0767 5.49399 14.0288 5.52825C13.8923 5.625 13.6988 5.625 13.3125 5.625C12.9263 5.625 12.7328 5.625 12.5963 5.5275C12.5481 5.49353 12.506 5.45169 12.4718 5.40375C12.375 5.26725 12.375 5.07375 12.375 4.6875ZM9.5625 16.5C9.5625 16.6492 9.62176 16.7923 9.72725 16.8977C9.83274 17.0032 9.97582 17.0625 10.125 17.0625C10.2742 17.0625 10.4173 17.0032 10.5227 16.8977C10.6282 16.7923 10.6875 16.6492 10.6875 16.5H9.5625ZM14.25 9.5625H12.75V10.6875H14.25V9.5625ZM9.5625 14.25V16.5H10.6875V14.25H9.5625ZM12.75 9.5625C12.2348 9.5625 11.8065 9.5625 11.4608 9.597C11.1053 9.633 10.776 9.71175 10.479 9.9105L11.1045 10.8458C11.1855 10.791 11.3085 10.743 11.5748 10.716C11.85 10.6883 12.2123 10.6875 12.75 10.6875V9.5625ZM10.6875 12.75C10.6875 12.2115 10.6875 11.85 10.716 11.5747C10.743 11.3085 10.791 11.1855 10.8458 11.1045L9.9105 10.479C9.7125 10.776 9.633 11.1052 9.597 11.4608C9.56175 11.8065 9.5625 12.2347 9.5625 12.75H10.6875ZM10.479 9.9105C10.254 10.0605 10.0605 10.254 9.9105 10.479L10.8458 11.1045C10.9142 11.0021 11.0021 10.9142 11.1045 10.8458L10.479 9.9105ZM17.0625 10.125C17.0625 9.97582 17.0032 9.83274 16.8977 9.72725C16.7923 9.62176 16.6492 9.5625 16.5 9.5625C16.3508 9.5625 16.2077 9.62176 16.1023 9.72725C15.9968 9.83274 15.9375 9.97582 15.9375 10.125H17.0625ZM12.75 17.0625H14.25V15.9375H12.75V17.0625ZM17.0625 12.75V10.125H15.9375V12.75H17.0625ZM14.25 17.0625C14.592 17.0625 14.8763 17.0625 15.1088 17.0475C15.3465 17.031 15.5715 16.9965 15.789 16.9058L15.3585 15.8663C15.3008 15.8903 15.213 15.912 15.0323 15.9247C14.847 15.9375 14.607 15.9375 14.25 15.9375V17.0625ZM15.9375 14.25C15.9375 14.607 15.9375 14.847 15.9248 15.0322C15.912 15.213 15.8903 15.3008 15.8663 15.3585L16.9058 15.789C16.9958 15.5715 17.031 15.3465 17.0468 15.1088C17.0625 14.8763 17.0625 14.5913 17.0625 14.25H15.9375ZM15.789 16.9058C16.0393 16.8022 16.2668 16.6496 16.4584 16.4581C16.65 16.2666 16.802 16.0392 16.9058 15.789L15.8663 15.3585C15.8191 15.4723 15.75 15.5758 15.6629 15.6629C15.5758 15.75 15.4723 15.8191 15.3585 15.8663L15.789 16.9058Z" fill="white"/>
<path d="M1.5 5.325C1.5 3.852 1.5 3.1155 1.8315 2.57475C2.01697 2.27215 2.2714 2.01772 2.574 1.83225C3.11625 1.5 3.85275 1.5 5.325 1.5C6.3075 1.5 6.798 1.5 7.15875 1.72125C7.36048 1.8449 7.5301 2.01452 7.65375 2.21625C7.875 2.57625 7.875 3.06825 7.875 4.05V4.875C7.875 6.2895 7.875 6.996 7.4355 7.4355C6.996 7.875 6.2895 7.875 4.875 7.875H4.05C3.0675 7.875 2.577 7.875 2.21625 7.65375C2.01452 7.5301 1.8449 7.36048 1.72125 7.15875C1.5 6.79875 1.5 6.30675 1.5 5.325Z" stroke="white" stroke-width="1.1"/>
<path d="M3.75 4.6875C3.75 4.30125 3.75 4.10775 3.8475 3.97125C3.88147 3.9231 3.92331 3.88101 3.97125 3.84675C4.10775 3.75 4.30125 3.75 4.6875 3.75C5.07375 3.75 5.26725 3.75 5.40375 3.8475C5.4519 3.88147 5.49399 3.92331 5.52825 3.97125C5.625 4.10775 5.625 4.30125 5.625 4.6875C5.625 5.07375 5.625 5.26725 5.5275 5.40375C5.49353 5.4519 5.45169 5.49399 5.40375 5.52825C5.26725 5.625 5.07375 5.625 4.6875 5.625C4.30125 5.625 4.10775 5.625 3.97125 5.5275C3.9231 5.49353 3.88101 5.45169 3.84675 5.40375C3.75 5.26725 3.75 5.07375 3.75 4.6875ZM3.75 13.3125C3.75 12.9263 3.75 12.7327 3.8475 12.5963C3.88147 12.5481 3.92331 12.506 3.97125 12.4718C4.10775 12.375 4.30125 12.375 4.6875 12.375C5.07375 12.375 5.26725 12.375 5.40375 12.4725C5.4519 12.5065 5.49399 12.5483 5.52825 12.5963C5.625 12.7327 5.625 12.9263 5.625 13.3125C5.625 13.6987 5.625 13.8923 5.5275 14.0287C5.49353 14.0769 5.45169 14.119 5.40375 14.1532C5.26725 14.25 5.07375 14.25 4.6875 14.25C4.30125 14.25 4.10775 14.25 3.97125 14.1525C3.9231 14.1185 3.88101 14.0767 3.84675 14.0287C3.75 13.8923 3.75 13.6987 3.75 13.3125ZM12 13.3125C12 12.786 12 12.5227 12.1268 12.333C12.1813 12.2514 12.2514 12.1813 12.333 12.1268C12.5227 12 12.786 12 13.3125 12C13.839 12 14.1023 12 14.292 12.1268C14.3736 12.1813 14.4437 12.2514 14.4982 12.333C14.625 12.5227 14.625 12.786 14.625 13.3125C14.625 13.839 14.625 14.1023 14.4982 14.292C14.4437 14.3736 14.3736 14.4437 14.292 14.4982C14.1023 14.625 13.839 14.625 13.3125 14.625C12.786 14.625 12.5227 14.625 12.333 14.4982C12.2514 14.4437 12.1813 14.3736 12.1268 14.292C12 14.1023 12 13.839 12 13.3125Z" fill="white"/>
</svg>
