<svg width="16" height="16" viewBox="0 0 16 16" fill="none" xmlns="http://www.w3.org/2000/svg">
<path d="M15.8187 5.84081C15.7506 5.63084 15.6222 5.44556 15.4496 5.30803C15.2769 5.1705 15.0676 5.08681 14.8477 5.06737L10.6719 4.70737L9.035 0.814869C8.94978 0.610623 8.80603 0.436158 8.62185 0.313441C8.43768 0.190725 8.22131 0.125244 8 0.125244C7.77869 0.125244 7.56232 0.190725 7.37815 0.313441C7.19397 0.436158 7.05022 0.610623 6.965 0.814869L5.33305 4.70737L1.15226 5.06948C0.931508 5.08803 0.721142 5.17134 0.547548 5.30897C0.373953 5.44661 0.244857 5.63243 0.176448 5.84313C0.108039 6.05384 0.103363 6.28006 0.163007 6.49341C0.22265 6.70676 0.343958 6.89776 0.511718 7.04245L3.68351 9.81417L2.73289 13.9303C2.68262 14.1457 2.69697 14.3711 2.77413 14.5784C2.85129 14.7857 2.98784 14.9656 3.16671 15.0957C3.34559 15.2258 3.55885 15.3003 3.77982 15.3099C4.0008 15.3194 4.2197 15.2636 4.40914 15.1495L7.99508 12.9698L11.5887 15.1495C11.7782 15.2636 11.9971 15.3194 12.2181 15.3099C12.439 15.3003 12.6523 15.2258 12.8312 15.0957C13.01 14.9656 13.1466 14.7857 13.2238 14.5784C13.3009 14.3711 13.3153 14.1457 13.265 13.9303L12.3151 9.80995L15.4862 7.04245C15.6539 6.89726 15.775 6.70572 15.8342 6.49191C15.8933 6.27811 15.888 6.05158 15.8187 5.84081ZM14.7486 6.19237L11.5775 8.95987C11.4232 9.09412 11.3084 9.26791 11.2454 9.46254C11.1825 9.65717 11.1738 9.86528 11.2203 10.0645L12.173 14.1876L8.58219 12.0079C8.40699 11.9012 8.20582 11.8448 8.0007 11.8448C7.79558 11.8448 7.59441 11.9012 7.41922 12.0079L3.83328 14.1876L4.77969 10.0673C4.8262 9.86809 4.81752 9.65999 4.75458 9.46535C4.69165 9.27072 4.57683 9.09693 4.4225 8.96268L1.25 6.19659C1.24974 6.19449 1.24974 6.19236 1.25 6.19026L5.42937 5.82885C5.63342 5.81087 5.82869 5.73751 5.99411 5.6167C6.15953 5.49589 6.28882 5.33221 6.36805 5.14331L8 1.25573L9.63125 5.14331C9.71047 5.33221 9.83977 5.49589 10.0052 5.6167C10.1706 5.73751 10.3659 5.81087 10.5699 5.82885L14.75 6.19026V6.19518L14.7486 6.19237Z" fill="white"/>
</svg>
