<svg width="16" height="16" viewBox="0 0 16 16" fill="none" xmlns="http://www.w3.org/2000/svg">
<path d="M9.55925 0.125C9.67834 0.125004 9.79436 0.162804 9.89059 0.232958C9.98682 0.303111 10.0583 0.401998 10.0948 0.515375L10.7135 2.438C10.9734 2.56512 11.222 2.708 11.4594 2.86887L13.4349 2.44363C13.5514 2.41876 13.6727 2.4315 13.7815 2.48002C13.8903 2.52855 13.9808 2.61034 14.0401 2.71363L15.5994 5.4125C15.6589 5.51573 15.6841 5.63519 15.6714 5.75368C15.6587 5.87216 15.6086 5.98354 15.5285 6.07175L14.1729 7.568C14.1926 7.85491 14.1926 8.14284 14.1729 8.42975L15.5285 9.92825C15.6086 10.0165 15.6587 10.1278 15.6714 10.2463C15.6841 10.3648 15.6589 10.4843 15.5994 10.5875L14.0401 13.2875C13.9807 13.3906 13.89 13.4721 13.7813 13.5205C13.6725 13.5688 13.5512 13.5813 13.4349 13.5564L11.4594 13.1311C11.2231 13.2909 10.9734 13.4349 10.7146 13.562L10.0948 15.4846C10.0583 15.598 9.98682 15.6969 9.89059 15.767C9.79436 15.8372 9.67834 15.875 9.55925 15.875H6.44075C6.32166 15.875 6.20564 15.8372 6.10941 15.767C6.01318 15.6969 5.94169 15.598 5.90525 15.4846L5.28762 13.5631C5.02845 13.4364 4.77846 13.2917 4.5395 13.13L2.56512 13.5564C2.44865 13.5812 2.32728 13.5685 2.21851 13.52C2.10974 13.4715 2.01918 13.3897 1.95987 13.2864L0.400625 10.5875C0.341084 10.4843 0.315864 10.3648 0.328602 10.2463C0.34134 10.1278 0.391377 10.0165 0.4715 9.92825L1.82712 8.42975C1.80749 8.14359 1.80749 7.85641 1.82712 7.57025L0.4715 6.07175C0.391377 5.98354 0.34134 5.87216 0.328602 5.75368C0.315864 5.63519 0.341084 5.51573 0.400625 5.4125L1.95987 2.7125C2.01935 2.60942 2.10998 2.52786 2.21873 2.47955C2.32749 2.43123 2.44877 2.41865 2.56512 2.44363L4.5395 2.87C4.778 2.70913 5.02775 2.564 5.28762 2.43688L5.90637 0.515375C5.9427 0.402363 6.01384 0.303738 6.10963 0.233619C6.20541 0.163499 6.32092 0.125479 6.43962 0.125H9.55813H9.55925ZM9.1475 1.25H6.8525L6.2135 3.23787L5.78262 3.44825C5.57081 3.5519 5.36633 3.66993 5.17062 3.8015L4.77237 4.0715L2.72937 3.6305L1.58187 5.6195L2.9825 7.16975L2.94875 7.64675C2.93259 7.88197 2.93259 8.11803 2.94875 8.35325L2.9825 8.83025L1.57962 10.3805L2.72825 12.3695L4.77125 11.9296L5.1695 12.1985C5.3652 12.3301 5.56968 12.4481 5.7815 12.5517L6.21237 12.7621L6.8525 14.75H9.14975L9.791 12.761L10.2207 12.5517C10.4323 12.4483 10.6365 12.3303 10.8316 12.1985L11.2288 11.9296L13.2729 12.3695L14.4204 10.3805L13.0186 8.83025L13.0524 8.35325C13.0686 8.11765 13.0686 7.88122 13.0524 7.64563L13.0186 7.16863L14.4215 5.6195L13.2729 3.6305L11.2288 4.06925L10.8316 3.8015C10.6365 3.66967 10.4324 3.55163 10.2207 3.44825L9.791 3.239L9.14862 1.25H9.1475ZM8 4.625C8.89511 4.625 9.75355 4.98058 10.3865 5.61351C11.0194 6.24645 11.375 7.10489 11.375 8C11.375 8.89511 11.0194 9.75355 10.3865 10.3865C9.75355 11.0194 8.89511 11.375 8 11.375C7.10489 11.375 6.24645 11.0194 5.61351 10.3865C4.98058 9.75355 4.625 8.89511 4.625 8C4.625 7.10489 4.98058 6.24645 5.61351 5.61351C6.24645 4.98058 7.10489 4.625 8 4.625ZM8 5.75C7.40326 5.75 6.83097 5.98705 6.40901 6.40901C5.98705 6.83097 5.75 7.40326 5.75 8C5.75 8.59674 5.98705 9.16903 6.40901 9.59099C6.83097 10.0129 7.40326 10.25 8 10.25C8.59674 10.25 9.16903 10.0129 9.59099 9.59099C10.0129 9.16903 10.25 8.59674 10.25 8C10.25 7.40326 10.0129 6.83097 9.59099 6.40901C9.16903 5.98705 8.59674 5.75 8 5.75Z" fill="white"/>
</svg>
