<svg width="13" height="8" viewBox="0 0 13 8" fill="none" xmlns="http://www.w3.org/2000/svg">
<path d="M1.30429 1.05151C1.24462 0.995128 1.17443 0.951047 1.09772 0.921787C1.02101 0.892528 0.939297 0.878662 0.857234 0.880984C0.77517 0.883305 0.694367 0.901768 0.619438 0.935317C0.544509 0.968866 0.476923 1.01684 0.420536 1.07651C0.36415 1.13618 0.320069 1.20638 0.290809 1.28308C0.261549 1.35979 0.247684 1.4415 0.250006 1.52357C0.252327 1.60563 0.270789 1.68643 0.304339 1.76136C0.337888 1.83629 0.385867 1.90388 0.445536 1.96026L6.07054 7.27276C6.18658 7.38247 6.34022 7.4436 6.49991 7.4436C6.65961 7.4436 6.81324 7.38247 6.92929 7.27276L12.5549 1.96026C12.6159 1.90425 12.6651 1.83668 12.6998 1.76147C12.7344 1.68627 12.7538 1.60493 12.7567 1.52219C12.7596 1.43944 12.7461 1.35693 12.7169 1.27946C12.6877 1.20199 12.6434 1.13109 12.5865 1.07089C12.5297 1.01069 12.4614 0.962385 12.3857 0.928781C12.3101 0.895177 12.2285 0.876944 12.1457 0.875142C12.0629 0.873339 11.9806 0.888002 11.9035 0.91828C11.8265 0.948557 11.7562 0.993845 11.6968 1.05151L6.49991 5.95901L1.30429 1.05151Z" fill="#7C7C7C"/>
</svg>
