<svg width="23" height="23" viewBox="0 0 23 23" fill="none" xmlns="http://www.w3.org/2000/svg">
<path d="M11.455 8.4969C11.949 8.4969 12.3494 8.09644 12.3494 7.60245C12.3494 7.10846 11.949 6.70801 11.455 6.70801C10.961 6.70801 10.5605 7.10846 10.5605 7.60245C10.5605 8.09644 10.961 8.4969 11.455 8.4969Z" fill="#E50000"/>
<path d="M13.4166 14.6941H12.1388V9.58301H10.2221C10.0527 9.58301 9.89017 9.65032 9.77035 9.77013C9.65054 9.88995 9.58322 10.0525 9.58322 10.2219C9.58322 10.3913 9.65054 10.5538 9.77035 10.6737C9.89017 10.7935 10.0527 10.8608 10.2221 10.8608H10.861V14.6941H9.58322C9.41378 14.6941 9.25128 14.7614 9.13146 14.8812C9.01165 15.0011 8.94434 15.1636 8.94434 15.333C8.94434 15.5025 9.01165 15.665 9.13146 15.7848C9.25128 15.9046 9.41378 15.9719 9.58322 15.9719H13.4166C13.586 15.9719 13.7485 15.9046 13.8683 15.7848C13.9881 15.665 14.0554 15.5025 14.0554 15.333C14.0554 15.1636 13.9881 15.0011 13.8683 14.8812C13.7485 14.7614 13.586 14.6941 13.4166 14.6941Z" fill="#E50000"/>
<path d="M11.5002 3.83301C9.98384 3.83301 8.50157 4.28265 7.24079 5.12507C5.98002 5.9675 4.99736 7.16487 4.41709 8.56577C3.83682 9.96667 3.68499 11.5082 3.98081 12.9954C4.27663 14.4826 5.00681 15.8486 6.07901 16.9208C7.15122 17.993 8.51729 18.7232 10.0045 19.019C11.4917 19.3148 13.0332 19.163 14.4341 18.5828C15.835 18.0025 17.0323 17.0198 17.8748 15.759C18.7172 14.4983 19.1668 13.016 19.1668 11.4997C19.1668 9.46635 18.3591 7.5163 16.9213 6.07852C15.4835 4.64074 13.5335 3.83301 11.5002 3.83301ZM11.5002 17.8886C10.2366 17.8886 9.00134 17.5139 7.95069 16.8118C6.90004 16.1098 6.08116 15.112 5.5976 13.9446C5.11404 12.7772 4.98752 11.4926 5.23404 10.2533C5.48055 9.01394 6.08904 7.87555 6.98254 6.98205C7.87604 6.08855 9.01443 5.48006 10.2538 5.23355C11.4931 4.98703 12.7777 5.11355 13.9451 5.59711C15.1125 6.08067 16.1103 6.89955 16.8123 7.9502C17.5144 9.00085 17.8891 10.2361 17.8891 11.4997C17.8891 12.3387 17.7238 13.1695 17.4027 13.9446C17.0817 14.7197 16.6111 15.424 16.0178 16.0173C15.4245 16.6106 14.7202 17.0812 13.9451 17.4022C13.17 17.7233 12.3392 17.8886 11.5002 17.8886Z" fill="#E50000"/>
</svg>
