<svg width="38" height="38" viewBox="0 0 38 38" fill="none" xmlns="http://www.w3.org/2000/svg">
<circle cx="19" cy="19" r="18.5" stroke="#F0F0F0"/>
<g clip-path="url(#clip0_259_600)">
<path d="M26.255 23.915C25.7729 23.4851 25.3507 22.9924 25 22.45C24.6171 21.7012 24.3876 20.8836 24.325 20.045V17.575C24.3283 16.2578 23.8505 14.9847 22.9814 13.9949C22.1123 13.0052 20.9116 12.3669 19.605 12.2V11.555C19.605 11.3779 19.5347 11.2081 19.4095 11.083C19.2843 10.9578 19.1146 10.8875 18.9375 10.8875C18.7605 10.8875 18.5907 10.9578 18.4655 11.083C18.3404 11.2081 18.27 11.3779 18.27 11.555V12.21C16.9752 12.3889 15.789 13.0311 14.9313 14.0175C14.0736 15.0039 13.6024 16.2678 13.605 17.575V20.045C13.5424 20.8836 13.3129 21.7012 12.93 22.45C12.5855 22.9911 12.1701 23.4838 11.695 23.915C11.6417 23.9618 11.5989 24.0195 11.5696 24.0841C11.5403 24.1488 11.5251 24.219 11.525 24.29V24.97C11.525 25.1026 11.5777 25.2297 11.6715 25.3235C11.7652 25.4173 11.8924 25.47 12.025 25.47H25.925C26.0576 25.47 26.1848 25.4173 26.2786 25.3235C26.3723 25.2297 26.425 25.1026 26.425 24.97V24.29C26.4249 24.219 26.4097 24.1488 26.3804 24.0841C26.3511 24.0195 26.3084 23.9618 26.255 23.915ZM12.565 24.47C13.0302 24.0206 13.4398 23.517 13.785 22.97C14.2673 22.0657 14.5487 21.068 14.61 20.045V17.575C14.5902 16.989 14.6885 16.405 14.899 15.8578C15.1096 15.3106 15.4281 14.8113 15.8356 14.3898C16.2432 13.9683 16.7313 13.633 17.2711 13.4041C17.8109 13.1751 18.3912 13.0572 18.9775 13.0572C19.5638 13.0572 20.1442 13.1751 20.6839 13.4041C21.2237 13.633 21.7119 13.9683 22.1194 14.3898C22.5269 14.8113 22.8454 15.3106 23.056 15.8578C23.2666 16.405 23.3649 16.989 23.345 17.575V20.045C23.4063 21.068 23.6877 22.0657 24.17 22.97C24.5152 23.517 24.9248 24.0206 25.39 24.47H12.565Z" fill="#7C7C7C"/>
<path d="M19 27.14C19.315 27.1327 19.6173 27.0143 19.8533 26.8057C20.0894 26.5971 20.2441 26.3117 20.29 26H17.66C17.7073 26.3202 17.8692 26.6123 18.1157 26.822C18.3622 27.0317 18.6764 27.1447 19 27.14Z" fill="#7C7C7C"/>
</g>
<defs>
<clipPath id="clip0_259_600">
<rect width="18" height="18" fill="white" transform="translate(10 10)"/>
</clipPath>
</defs>
</svg>
