<svg width="67" height="26" viewBox="0 0 67 26" fill="none" xmlns="http://www.w3.org/2000/svg">
<path d="M66.2204 0.818848V24.8887H62.5124V0.818848H66.2204Z" fill="white"/>
<path d="M57.6199 6.96655V24.8888H53.9118V22.7746C53.3264 23.5118 52.5566 24.0973 51.6025 24.531C50.67 24.943 49.6725 25.149 48.61 25.149C47.2005 25.149 45.9319 24.8563 44.8044 24.2708C43.6984 23.6853 42.8202 22.8179 42.1697 21.6687C41.5408 20.5194 41.2264 19.1316 41.2264 17.5052V6.96655H44.9019V16.9523C44.9019 18.5569 45.3031 19.7929 46.1054 20.6603C46.9078 21.506 48.0028 21.9289 49.3906 21.9289C50.7784 21.9289 51.8735 21.506 52.6758 20.6603C53.4998 19.7929 53.9118 18.5569 53.9118 16.9523V6.96655H57.6199Z" fill="white"/>
<path d="M18.1083 15.8461C18.1083 14.0463 18.4769 12.4525 19.2142 11.0647C19.9731 9.67689 20.9923 8.6035 22.2717 7.84455C23.5728 7.0639 25.0039 6.67358 26.5652 6.67358C27.9747 6.67358 29.1999 6.95548 30.2407 7.51928C31.3033 8.06139 32.149 8.74446 32.7778 9.56847V6.96633H36.5184V24.8886H32.7778V22.2214C32.149 23.0671 31.2924 23.7718 30.2082 24.3356C29.124 24.8994 27.888 25.1813 26.5002 25.1813C24.9606 25.1813 23.5511 24.791 22.2717 24.0104C20.9923 23.208 19.9731 22.1021 19.2142 20.6926C18.4769 19.2614 18.1083 17.6459 18.1083 15.8461ZM32.7778 15.9112C32.7778 14.6752 32.5176 13.6018 31.9972 12.691C31.4984 11.7803 30.8371 11.0864 30.0131 10.6093C29.189 10.1323 28.3 9.89373 27.3459 9.89373C26.3917 9.89373 25.5027 10.1323 24.6787 10.6093C23.8547 11.0647 23.1824 11.7478 22.662 12.6585C22.1633 13.5476 21.9139 14.6101 21.9139 15.8461C21.9139 17.0821 22.1633 18.1664 22.662 19.0988C23.1824 20.0312 23.8547 20.7468 24.6787 21.2456C25.5244 21.7226 26.4134 21.9612 27.3459 21.9612C28.3 21.9612 29.189 21.7226 30.0131 21.2456C30.8371 20.7685 31.4984 20.0746 31.9972 19.1639C32.5176 18.2314 32.7778 17.1472 32.7778 15.9112Z" fill="white"/>
<path d="M15.808 9.01551C15.808 10.1648 15.537 11.249 14.9948 12.2682C14.4527 13.2874 13.5853 14.1222 12.3927 14.7727C11.2001 15.4016 9.67129 15.716 7.80642 15.716H3.70805V24.8886H0V2.28247H7.80642C9.54119 2.28247 11.0049 2.58605 12.1975 3.19322C13.4119 3.7787 14.3118 4.58103 14.8973 5.6002C15.5044 6.61937 15.808 7.75781 15.808 9.01551ZM7.80642 12.691C9.21592 12.691 10.2676 12.3766 10.9615 11.7478C11.6554 11.0972 12.0024 10.1865 12.0024 9.01551C12.0024 6.54348 10.6037 5.30746 7.80642 5.30746H3.70805V12.691H7.80642Z" fill="white"/>
</svg>
