<svg width="18" height="10" viewBox="0 0 18 10" fill="none" xmlns="http://www.w3.org/2000/svg">
<path d="M4.58333 2.12516V0.208496H18V2.12516H4.58333ZM4.58333 5.9585V4.04183H18V5.9585H4.58333ZM4.58333 9.79183V7.87516H18V9.79183H4.58333ZM1.70833 2.12516C1.43681 2.12516 1.20936 2.03316 1.026 1.84916C0.842639 1.66516 0.750639 1.43772 0.75 1.16683C0.75 0.895302 0.842 0.667857 1.026 0.484496C1.21 0.301135 1.43744 0.209135 1.70833 0.208496C1.97986 0.208496 2.20762 0.300496 2.39162 0.484496C2.57562 0.668496 2.66731 0.895941 2.66667 1.16683C2.66667 1.43836 2.57467 1.66612 2.39067 1.85012C2.20667 2.03412 1.97922 2.1258 1.70833 2.12516ZM1.70833 5.9585C1.43681 5.9585 1.20936 5.8665 1.026 5.6825C0.842639 5.4985 0.750639 5.27105 0.75 5.00016C0.75 4.72863 0.842 4.50119 1.026 4.31783C1.21 4.13447 1.43744 4.04247 1.70833 4.04183C1.97986 4.04183 2.20762 4.13383 2.39162 4.31783C2.57562 4.50183 2.66731 4.72927 2.66667 5.00016C2.66667 5.27169 2.57467 5.49945 2.39067 5.68345C2.20667 5.86745 1.97922 5.95914 1.70833 5.9585ZM1.70833 9.79183C1.43681 9.79183 1.20936 9.69983 1.026 9.51583C0.842639 9.33183 0.750639 9.10438 0.75 8.8335C0.75 8.56197 0.842 8.33452 1.026 8.15116C1.21 7.9678 1.43744 7.8758 1.70833 7.87516C1.97986 7.87516 2.20762 7.96716 2.39162 8.15116C2.57562 8.33516 2.66731 8.56261 2.66667 8.8335C2.66667 9.10502 2.57467 9.33279 2.39067 9.51679C2.20667 9.70079 1.97922 9.79247 1.70833 9.79183Z" fill="black"/>
</svg>
