<svg width="21" height="21" viewBox="0 0 21 21" fill="none" xmlns="http://www.w3.org/2000/svg">
<g clip-path="url(#clip0_198_628)">
<path fill-rule="evenodd" clip-rule="evenodd" d="M16.625 3.5C17.2946 3.49996 17.9388 3.75578 18.426 4.21512C18.9131 4.67446 19.2063 5.30259 19.2456 5.971L19.25 6.125V14.875C19.25 15.5446 18.9942 16.1888 18.5349 16.676C18.0755 17.1631 17.4474 17.4563 16.779 17.4956L16.625 17.5H4.375C3.70544 17.5 3.06117 17.2442 2.57402 16.7849C2.08687 16.3255 1.79366 15.6974 1.75438 15.029L1.75 14.875V6.125C1.74996 5.45544 2.00578 4.81117 2.46512 4.32402C2.92446 3.83687 3.55259 3.54366 4.221 3.50438L4.375 3.5H16.625ZM17.5 8.75H3.5V14.875C3.50003 15.0893 3.57871 15.2962 3.72113 15.4563C3.86354 15.6165 4.05978 15.7188 4.27262 15.7439L4.375 15.75H16.625C16.8393 15.75 17.0462 15.6713 17.2063 15.5289C17.3665 15.3865 17.4688 15.1902 17.4939 14.9774L17.5 14.875V8.75ZM8.13138 10.031C8.28884 9.87407 8.50013 9.78296 8.72234 9.77618C8.94454 9.76939 9.161 9.84744 9.32774 9.99447C9.49449 10.1415 9.59902 10.3465 9.6201 10.5678C9.64118 10.7891 9.57724 11.0101 9.44125 11.186L9.36862 11.2691L9.26275 11.375H13.125C13.348 11.3752 13.5625 11.4606 13.7247 11.6137C13.8869 11.7668 13.9845 11.9761 13.9975 12.1987C14.0106 12.4214 13.9382 12.6406 13.795 12.8116C13.6519 12.9826 13.4488 13.0925 13.2274 13.1189L13.125 13.125H9.26275L9.36775 13.2309C9.52635 13.388 9.6189 13.5997 9.62647 13.8229C9.63404 14.046 9.55605 14.2635 9.40847 14.431C9.26088 14.5985 9.05486 14.7032 8.83258 14.7238C8.61029 14.7444 8.38856 14.6792 8.21275 14.5416L8.13138 14.4681L6.531 12.8686C6.38035 12.718 6.28984 12.5175 6.27647 12.3048C6.2631 12.0922 6.32778 11.882 6.45837 11.7136L6.531 11.6314L8.13138 10.031ZM16.625 5.25H4.375C4.14294 5.25 3.92038 5.34219 3.75628 5.50628C3.59219 5.67038 3.5 5.89294 3.5 6.125V7H17.5V6.125C17.5 5.89294 17.4078 5.67038 17.2437 5.50628C17.0796 5.34219 16.8571 5.25 16.625 5.25Z" fill="url(#paint0_linear_198_628)"/>
</g>
<defs>
<linearGradient id="paint0_linear_198_628" x1="1.75" y1="3.5" x2="19.6646" y2="4.05233" gradientUnits="userSpaceOnUse">
<stop offset="0.0400548" stop-color="#8419E2"/>
<stop offset="1" stop-color="#F13727"/>
</linearGradient>
<clipPath id="clip0_198_628">
<rect width="21" height="21" fill="white"/>
</clipPath>
</defs>
</svg>
