<svg width="16" height="17" viewBox="0 0 16 17" fill="none" xmlns="http://www.w3.org/2000/svg">
<path d="M7.4375 12.4375H8.3125V7.625H7.4375V12.4375ZM7.875 6.37987C8.02783 6.37987 8.15558 6.32825 8.25825 6.225C8.3615 6.12175 8.41313 5.994 8.41313 5.84175C8.41313 5.68892 8.3615 5.56087 8.25825 5.45762C8.15558 5.35437 8.02783 5.30275 7.875 5.30275C7.72217 5.30275 7.59442 5.35437 7.49175 5.45762C7.3885 5.56087 7.33687 5.68892 7.33687 5.84175C7.33687 5.994 7.3885 6.12175 7.49175 6.225C7.59442 6.32825 7.72217 6.37987 7.875 6.37987ZM7.87763 16.375C6.78913 16.375 5.76538 16.1685 4.80638 15.7555C3.84796 15.3419 3.01408 14.7808 2.30475 14.072C1.59542 13.3638 1.03396 12.5308 0.620375 11.573C0.206792 10.6152 0 9.59171 0 8.50263C0 7.41413 0.2065 6.39038 0.6195 5.43138C1.03308 4.47296 1.59425 3.63908 2.303 2.92975C3.01117 2.22042 3.84417 1.65896 4.802 1.24538C5.75983 0.831792 6.78329 0.625 7.87237 0.625C8.96087 0.625 9.98462 0.8315 10.9436 1.2445C11.902 1.65808 12.7359 2.21925 13.4452 2.928C14.1546 3.63617 14.716 4.46917 15.1296 5.427C15.5432 6.38483 15.75 7.40829 15.75 8.49737C15.75 9.58587 15.5435 10.6096 15.1305 11.5686C14.7169 12.527 14.1558 13.3609 13.447 14.0702C12.7388 14.7796 11.9058 15.341 10.948 15.7546C9.99017 16.1682 8.96671 16.375 7.87763 16.375ZM7.875 15.5C9.82917 15.5 11.4844 14.8219 12.8406 13.4656C14.1969 12.1094 14.875 10.4542 14.875 8.5C14.875 6.54583 14.1969 4.89062 12.8406 3.53437C11.4844 2.17812 9.82917 1.5 7.875 1.5C5.92083 1.5 4.26562 2.17812 2.90937 3.53437C1.55312 4.89062 0.875 6.54583 0.875 8.5C0.875 10.4542 1.55312 12.1094 2.90937 13.4656C4.26562 14.8219 5.92083 15.5 7.875 15.5Z" fill="black"/>
</svg>
